/* XPM */
static char *icon_32x32[] = {
/* columns rows colors chars-per-pixel */
"32 32 111 2 ",
"   c #060501",
".  c #090702",
"X  c #0C0A03",
"o  c #120E04",
"O  c #150E09",
"+  c #190F0A",
"@  c #151106",
"#  c #17120C",
"$  c #1C130C",
"%  c #1B1611",
"&  c #1C1813",
"*  c #23170F",
"=  c #231711",
"-  c #251A12",
";  c #2B1D13",
":  c #341E13",
">  c #2B2015",
",  c #2A2119",
"<  c #332116",
"1  c #34251A",
"2  c #3B2519",
"3  c #37281C",
"4  c #3E291D",
"5  c #2D2823",
"6  c #372D22",
"7  c #3D2B20",
"8  c #37312A",
"9  c #42251A",
"0  c #4A261B",
"q  c #432B1E",
"w  c #49291D",
"e  c #422E21",
"r  c #492E21",
"t  c #463124",
"y  c #4B3325",
"u  c #463827",
"i  c #42372B",
"p  c #4C3628",
"a  c #473B2F",
"s  c #4C3B2B",
"d  c #533526",
"f  c #523729",
"g  c #533B2B",
"h  c #583D2C",
"j  c #493F33",
"k  c #533F30",
"l  c #623E2C",
"z  c #57412F",
"x  c #5C402D",
"c  c #4C4339",
"v  c #594431",
"b  c #5C4834",
"n  c #55473D",
"m  c #564939",
"M  c #5A493A",
"N  c #62412F",
"B  c #624531",
"V  c #684632",
"C  c #634A36",
"Z  c #6A4A36",
"A  c #684538",
"S  c #634C3A",
"D  c #6F4D38",
"F  c #704C37",
"G  c #714E39",
"H  c #6D553D",
"J  c #75523D",
"K  c #78563C",
"L  c #5F5040",
"P  c #655242",
"I  c #6B594A",
"U  c #715342",
"Y  c #745A45",
"T  c #7A5C45",
"R  c #776048",
"E  c #7B644B",
"W  c #7A6651",
"Q  c #826146",
"!  c #87674E",
"~  c #8E6F52",
"^  c #8C7355",
"/  c #87755E",
"(  c #8A745E",
")  c #927355",
"_  c #947A57",
"`  c #947458",
"'  c #95795E",
"]  c #997A5C",
"[  c #957C63",
"{  c #9C7D61",
"}  c #978165",
"|  c #9D8665",
" . c #A08262",
".. c #A58D6E",
"X. c #AA9069",
"o. c #A48870",
"O. c #AC987B",
"+. c #B89F7B",
"@. c #B49E83",
"#. c #BAAD98",
"$. c #C3AB89",
"%. c #C5B295",
"&. c #C7B69D",
"*. c #CEB898",
"=. c #CBB594",
"-. c #D3BE9F",
";. c #D4BFA0",
":. c #C8BFB0",
">. c #D6C2A2",
",. c #DECAAA",
"<. c None",
/* pixels */
"<.<.<.<.<.<.<.<.<.<.<.<.<.<.>.&.&.#.>.>.;.-.;.-.O.<.<.<.<.<.<.<.",
"<.<.<.<.<.<.<.<.<.<.<.<.<.#.&.[ [ [ { [ ` ^ ~ ! T T <.<.<.<.<.<.",
"<.<.<.<.<.<.<.<.<.<.<.o.W / | L S T K J J J J D V B <.<.<.<.<.<.",
"<.<.<.<.<.<.<.<.<.<.( Q W I P n I <.@.o.! K J F V <.<.<.<.<.<.<.",
"<.<.<.<.<.<.<.<.<.<.U J ] R t 6 M >.,.*.+. .~ K D <.<.<.<.<.<.<.",
"<.<.<.<.<.<.<.<.<.<.A F D 3 t g k O.$. .] ) Q D <.<.<.<.<.<.<.<.",
"<.<.<.<.<.<.<.<.<.<.; : N N K Z h W ( T Z D N d <.<.<.<.<.<.<.<.",
"<.<.<.<.<.<.<.<.<.S o . @ ; q e s T T C y d q <.<.<.<.<.<.<.<.<.",
"<.<.<.<.<.<.<.<.[ f : . . X ; v H H H C 7 q <.<.<.<.<.<.<.<.<.<.",
"<.<.<.<.<.<.<...Z f y O     X > z z v g 7 <.<.<.<.<.<.<.<.<.<.<.",
"<.<.<.<.<.<.<.T h h f $     X X @ ; e y u t <.<.<.<.<.<.<.<.<.<.",
"<.<.<.<.<.<.H Z B h y O   X @ @ @ o o * > e <.<.<.<.<.<.<.<.<.<.",
"<.<.<.<.<.<.Z S V h t o X o @ @ @ @ o o o @ > <.<.<.<.<.<.<.<.<.",
"<.<.<.<.<.<.C C B g r * X X X o X o X o o o X <.<.<.<.<.<.<.<.<.",
"<.<.<.<.<.<.h h x f r *   X X X X o o X O X X O <.<.<.<.<.<.<.<.",
"<.<.<.<.<.<.y f g y q -   . . . X X o X X X X X <.<.<.<.<.<.<.<.",
"<.<.<.<.<.<.w r y t q *         . . . . . X X X <.<.<.<.<.<.<.<.",
"<.<.<.<.<.<.0 w w q q ;             . .   . . <.<.<.<.<.<.<.<.<.",
"<.<.<.<.<.<.9 9 q q q ;     . X . . . . . . . <.<.<.<.<.<.<.<.<.",
"<.<.<.<.<.<.< 2 2 4 4 < ; = X X X X X . . . . & <.<.<.<.<.<.<.<.",
"<.<.<.<.<.<.<.: 2 2 q 2 u S u $ . X X . .   o & <.<.<.<.<.<.<.<.",
"<.<.<.<.<.<.<.: < 2 9 < s R _ s X . X     . $ & <.<.<.<.<.<.<.<.",
"<.<.<.<.<.<.<.<.< 2 2 : g Y ..^ > . .     @ - & <.<.<.<.<.<.<.<.",
"<.<.<.<.<.<.<.2 q 2 > < s S } ~ 6 X .   . & 1 <.<.<.<.<.<.<.<.<.",
"<.<.<.<.<.<.<.2 e 7 ; 3 p k S b ; X . # ; 3 <.<.<.<.<.<.<.<.<.<.",
"<.<.<.<.<.<.<.<.<.<.; < e p p 1 % # % ; > <.<.<.<.<.<.<.<.<.<.<.",
"<.<.<.<.<.<.<.<.<.- < ; - : - + = - $ ; <.<.<.<.<.<.<.<.<.<.<.<.",
"<.<.<.<.<.<.<.<.<.- < ; = + + + * * # <.<.<.<.<.<.<.<.<.<.<.<.<.",
"<.<.<.<.<.<.<.<.<.<.- ; = * O O o & j <.<.<.<.<.<.<.<.<.<.<.<.<.",
"<.<.<.<.<.<.<.<.<.<.$ $ O % 5 % % ; i j c <.<.<.<.<.<.<.<.<.<.<.",
"<.<.<.<.<.<.<.<.<.<.= % ; 6 j m <.<.8 c <.<.<.<.<.<.<.<.<.<.<.<.",
"<.<.<.<.<.<.<.<.<.<.<.<.i a j n <.<.<.<.<.<.<.<.<.<.<.<.<.<.<.<."
};
